<svg width="97" height="21" viewBox="0 0 97 21" fill="none" xmlns="http://www.w3.org/2000/svg">
<path d="M8.18128 0.541992C3.2366 0.541992 0 3.81688 0 8.33265C0 12.8484 2.82296 16.0695 8.09129 16.0695C11.0446 16.0695 14.3846 14.6001 15.4679 10.7564H11.4897C10.8648 11.9435 9.80387 12.6647 8.01929 12.6647C5.83015 12.6647 4.10412 11.4058 3.86588 9.18379H15.6567V7.92053C15.6387 3.351 12.3887 0.541992 8.18128 0.541992ZM3.98265 6.51377C4.24878 5.72624 4.76444 5.04613 5.45192 4.5759C6.1394 4.10566 6.96149 3.87084 7.79454 3.90653C9.67801 3.90653 11.1525 4.91892 11.629 6.51377H3.98265Z" fill="#FF7D5A"/>
<path d="M53.8524 0.542433C52.1283 0.47095 50.442 1.06106 49.1412 2.19113V0.824616H45.5947V20.5363H49.2492V14.5153C50.5409 15.5807 52.1813 16.1343 53.8568 16.0699C58.0777 16.0699 61.1838 12.7951 61.1838 8.30619C61.1838 3.8173 58.0733 0.542433 53.8524 0.542433ZM53.3263 12.5844C52.1877 12.5844 51.0958 12.1338 50.2907 11.3315C49.4856 10.5291 49.0335 9.44087 49.0335 8.30619C49.0335 7.1715 49.4856 6.08327 50.2907 5.28092C51.0958 4.47858 52.1877 4.02794 53.3263 4.02794C54.4308 4.07833 55.4734 4.55103 56.2371 5.34786C57.0009 6.14468 57.4272 7.20422 57.4272 8.30619C57.4272 9.40816 57.0009 10.4677 56.2371 11.2645C55.4734 12.0613 54.4308 12.534 53.3263 12.5844Z" fill="#FF7D5A"/>
<path d="M75.2381 2.13795C73.9185 1.04627 72.241 0.478344 70.5272 0.543067C66.3063 0.543067 63.2002 3.79105 63.2002 8.30682C63.2002 12.8226 66.3063 16.0706 70.5272 16.0706C72.1994 16.1279 73.8359 15.5806 75.1348 14.5295V15.7884H78.7849V0.82525H75.2381V2.13795ZM71.0533 12.5851C70.2 12.6064 69.3596 12.3739 68.6396 11.917C67.9196 11.4601 67.3525 10.7997 67.011 10.02C66.6695 9.24041 66.5689 8.37699 66.7221 7.54011C66.8754 6.70324 67.2755 5.93073 67.8714 5.32159C68.4672 4.71245 69.2318 4.29421 70.0674 4.12023C70.9029 3.94625 71.7716 4.02447 72.5623 4.34488C73.3531 4.6653 74.0299 5.21349 74.5066 5.9192C74.9832 6.62491 75.2379 7.45613 75.2381 8.30682C75.2582 8.86497 75.1647 9.42136 74.9629 9.94239C74.7611 10.4634 74.4553 10.9383 74.0641 11.3382C73.6729 11.7381 73.2043 12.0549 72.6868 12.2692C72.1693 12.4835 71.6137 12.5909 71.0533 12.5851Z" fill="#FF7D5A"/>
<path d="M36.6135 0.543017C35.58 0.509288 34.5549 0.738402 33.6348 1.20866C32.7146 1.67892 31.9299 2.37485 31.3543 3.23098C30.5317 1.62716 28.9088 0.543017 26.3376 0.543017C25.4436 0.512997 24.5538 0.678289 23.7307 1.02732C22.9076 1.37635 22.1709 1.90079 21.5727 2.56358V0.8252H17.9766V15.7883H21.7301V7.61247C21.7301 5.5965 22.9438 4.02853 25.1734 4.02853C27.0119 4.02853 28.2524 5.13941 28.2524 7.35697V15.7927H32.0059V7.61685C32.0059 5.60088 33.2466 4.0329 35.4223 4.0329C37.3103 4.0329 38.5285 5.144 38.5285 7.36157V15.7973H42.2818V6.20112C42.2818 3.09652 40.5467 0.543017 36.6135 0.543017Z" fill="#FF7D5A"/>
<path d="M92.0727 0.825684L88.2204 10.8294L84.3995 0.825684H79.918L86.2516 15.8245L84.3411 20.5374H88.3104L96.0016 0.825684H92.0727Z" fill="#FF7D5A"/>
</svg>
